<svg version="1.2" baseProfile="tiny" id="EdgeSVG_55RDg" x="0px" y="0px" width="163.632px" height="300px" viewBox="0 0 163.632 300" xmlns:xlink="http://www.w3.org/1999/xlink" xmlns="http://www.w3.org/2000/svg">
  <linearGradient id="SVGID_1_" gradientUnits="userSpaceOnUse" x1="0" y1="150" x2="163.6323" y2="150">
    <stop offset="0" style="stop-color:#000000;stop-opacity:0.5"/>
    <stop offset="1" style="stop-color:#000000;stop-opacity:0.5"/>
  </linearGradient>
  <path fill="url(#SVGID_1_)" d="M126.811,300v-2.816h6v-61.966c-11.038,3.967-26.453,6.139-45.855,6.461v55.505h5.104V300H70.042&#xD;&#xA;&#x9;&#x9;v-2.816h4.845v-55.538c-18.626-0.424-33.478-2.6-44.185-6.471v62.009h6.28V300H10.199v-2.816h6.001v-70.65&#xD;&#xA;&#x9;&#x9;c-4.159-4.428-4.09-8.222-4.063-8.696v-15.812C8.384,201.679,0,200.459,0,192.996V77.212c0-7.463,8.385-8.684,12.138-9.03V48.841&#xD;&#xA;&#x9;&#x9;h-0.471v-2.253H9.695v2.253H3.78v-2.253H0.438V35.885H3.78v-2.253h5.915v2.253h1.408v-2.253h0.663&#xD;&#xA;&#x9;&#x9;c1.457-6.136,6.68-11.212,15.159-14.71c7.822-3.229,18.284-5.006,29.458-5.006h36.581l2.53-9.348l-2.075-0.562l0.315-1.168&#xD;&#xA;&#x9;&#x9;l0.209-0.821l0.536-1.983l3.374,0.917C98.62,0.662,100.81,0,104.736,0c4.463,0,9.703,0.833,15.572,2.475&#xD;&#xA;&#x9;&#x9;c14.392,4.027,19.42,8.949,20.432,10.086l3.046,0.821l-0.252,0.697l-0.026,0.107l-0.852,3.15l-1.804-0.489l-1.059,3.907&#xD;&#xA;&#x9;&#x9;c6.181,3.338,10.059,7.77,11.275,12.877h0.586v2.253h1.973v-2.253h5.915v2.253h3.859v10.703h-3.859v2.253h-5.915v-2.253h-1.973&#xD;&#xA;&#x9;&#x9;v2.253h-0.16v19.341c3.753,0.346,12.138,1.567,12.138,9.03v115.783c0,7.463-8.384,8.684-12.137,9.03v15.811&#xD;&#xA;&#x9;&#x9;c0.026,0.476,0.097,4.336-4.183,8.819v70.527h6.28V300H126.811z"/>
</svg>