<svg version="1.2" baseProfile="tiny" viewBox="0 0 163.632 300.0" xmlns:xlink="http://www.w3.org/1999/xlink" xmlns="http://www.w3.org/2000/svg">
<path style="fill:#ffffff;" d="M150.6494,68.958L150.6494,47.997L150.8098,47.997L150.8098,45.744L154.4719,45.744L154.4719,47.997L155.4569,47.997L157.7102,47.997L158.6952,47.997L158.6952,45.744L162.5553,45.744L162.5553,36.729L158.6952,36.729L158.6952,34.476L157.7102,34.476L155.4569,34.476L154.4719,34.476L154.4719,36.729L150.8098,36.729L150.8098,34.476L150.3844,34.476C149.3191,28.842,145.0434,24.411,138.8025,21.186L140.2555,15.81L142.0604,16.299L142.692,13.965L142.6773,13.962L142.6789,13.959L140.2654,13.308C140.2654,13.308,136.0273,7.752,120.0797,3.288C104.1321,-1.173,97.9076,1.839,97.9076,1.839L95.0735,1.071L94.7593,2.238L94.7724,2.241L94.4566,3.411L96.5314,3.972L93.6106,14.76L56.3827,14.76L56.3827,14.76C34.7816,14.76,14.9314,21.366,12.4491,34.476L11.9484,34.476L11.9484,36.729L8.8492,36.729L8.8492,34.476L8.8492,34.476L7.8658,34.476L7.8658,34.476L5.6109,34.476L5.6109,34.476L4.6242,34.476L4.6242,36.729L4.6242,36.729L1.2829,36.729L1.2829,45.741L1.2829,45.741L4.6242,45.741L4.6242,47.994L5.6109,47.994L7.8642,47.994L8.8492,47.994L8.8492,45.741L8.8492,45.741L12.5113,45.741L12.5113,47.994L12.9842,47.994L12.9842,68.955C7.0084,69.447,0.846,71.169,0.846,77.211L0.846,192.993C0.846,199.032,7.0084,200.757,12.9826,201.246L12.9826,217.86C12.9826,217.86,12.6602,221.673,17.0472,226.191L17.0472,298.026L11.0452,298.026L11.0452,299.154L36.1381,299.154L36.1381,298.026L29.8579,298.026L29.8579,233.955C39.131,237.516,53.4946,240.375,75.7338,240.816L75.7338,298.026L70.8887,298.026L70.8887,299.154L91.215,299.154L91.215,298.026L86.1097,298.026L86.1097,240.843L86.1097,240.843C109.2718,240.525,124.1312,237.636,133.6563,234.003L133.6563,298.026L127.6559,298.026L127.6559,299.151L152.7488,299.151L152.7488,298.026L146.4686,298.026L146.4686,226.311C150.9767,221.739,150.6527,217.86,150.6527,217.86L150.6527,201.249C156.6269,200.76,162.7893,199.035,162.7893,192.996L162.7893,77.211C162.7877,71.172,156.6253,69.45,150.6494,68.958Z"/>
</svg>