<svg version="1.2" baseProfile="tiny" viewBox="0 0 134.616 237.280" xmlns:xlink="http://www.w3.org/1999/xlink" xmlns="http://www.w3.org/2000/svg">
<path style="fill:#ffffff;" d="M134.616,32.57c-0.813-4.296-3.694-7.993-8.569-11.013c-1.029-0.712-2.139-1.38-3.325-1.992   c0,0,1.222-4.874,1.827-7.694c0,0-4.693-5.36-18.222-9.31C94.142-0.997,84.286-0.246,83.706,1.22   c-1.015,2.564-3.8,12.723-3.8,12.723h-37.47c-3.642,0-7.314,0.206-10.894,0.623C15.894,16.289,1.998,22.018,0.008,32.537   L0.005,44.419v23.667L0.004,197.784v17.933l-0.003,0.076c-0.002,0.028-0.103,2.666,2.574,6.014l0.403,0.567   c0,0,7.928-0.223,12.237,4.507l0.016,3.371c10.76,4.051,27.221,6.614,46.143,6.989l0.819,0.017l8.684,0.022l0.828-0.012   c19.714-0.271,36.484-2.787,47.607-6.946l0.01-3.277c4.109-4.327,12.408-4.646,12.408-4.646l0.51-0.542   c2.719-3.368,2.35-6.105,2.35-6.105L134.616,32.57z"/>
</svg>